<?xml version="1.0" encoding="UTF-8"?><svg id="Layer_1" xmlns="http://www.w3.org/2000/svg" width="32" height="32" viewBox="0 0 32 32"><defs><style>.cls-1{fill:#ce5b0d;}</style></defs><path class="cls-1" d="M15.83,26.67c.09,0,.18-.02,.27-.07,.09-.04,.16-.09,.2-.13l10.93-10.93c.27-.27,.46-.57,.58-.9,.12-.33,.18-.67,.18-1,0-.36-.06-.69-.18-1.02-.12-.32-.32-.6-.58-.85l-5.67-5.67c-.24-.27-.53-.46-.85-.58-.32-.12-.66-.18-1.02-.18-.33,0-.67,.06-1,.18-.33,.12-.63,.32-.9,.58l-.37,.37,2.47,2.5c.33,.31,.58,.67,.73,1.07s.23,.82,.23,1.27c0,.93-.32,1.72-.95,2.35-.63,.63-1.42,.95-2.35,.95-.44,0-.87-.08-1.28-.23-.41-.16-.77-.39-1.08-.7l-2.5-2.47-5.83,5.83c-.07,.07-.12,.14-.15,.22-.03,.08-.05,.16-.05,.25,0,.18,.07,.34,.2,.48,.13,.14,.29,.22,.47,.22,.09,0,.18-.02,.27-.07,.09-.04,.16-.09,.2-.13l4.53-4.53,1.87,1.87-4.5,4.53c-.07,.07-.12,.14-.15,.22-.03,.08-.05,.16-.05,.25,0,.18,.07,.33,.2,.47,.13,.13,.29,.2,.47,.2,.09,0,.18-.02,.27-.07s.16-.09,.2-.13l4.53-4.5,1.87,1.87-4.5,4.53c-.07,.04-.12,.11-.15,.2-.03,.09-.05,.18-.05,.27,0,.18,.07,.33,.2,.47,.13,.13,.29,.2,.47,.2,.09,0,.17-.02,.25-.05,.08-.03,.15-.08,.22-.15l4.53-4.5,1.87,1.87-4.53,4.53c-.07,.07-.12,.14-.15,.22-.03,.08-.05,.16-.05,.25,0,.18,.07,.33,.22,.47,.14,.13,.3,.2,.48,.2Zm-.03,2.67c-.82,0-1.55-.27-2.18-.82-.63-.54-1.01-1.23-1.12-2.05-.76-.11-1.39-.42-1.9-.93-.51-.51-.82-1.14-.93-1.9-.76-.11-1.38-.43-1.88-.95-.5-.52-.81-1.15-.92-1.88-.84-.11-1.53-.48-2.07-1.1-.53-.62-.8-1.36-.8-2.2,0-.44,.08-.87,.25-1.28,.17-.41,.4-.77,.72-1.08l7.73-7.7,4.37,4.37c.04,.07,.11,.12,.2,.15,.09,.03,.18,.05,.27,.05,.2,0,.37-.06,.5-.18,.13-.12,.2-.28,.2-.48,0-.09-.02-.18-.05-.27-.03-.09-.08-.16-.15-.2l-4.77-4.77c-.24-.27-.53-.46-.85-.58-.32-.12-.66-.18-1.02-.18-.33,0-.67,.06-1,.18-.33,.12-.63,.32-.9,.58l-4.7,4.73c-.2,.2-.37,.43-.5,.7-.13,.27-.22,.53-.27,.8s-.04,.54,0,.82c.04,.28,.13,.54,.27,.78l-1.93,1.93c-.38-.51-.66-1.07-.83-1.68-.18-.61-.24-1.23-.2-1.85s.2-1.23,.47-1.82c.27-.59,.63-1.12,1.1-1.58L7.6,4.23c.53-.51,1.13-.9,1.78-1.17,.66-.27,1.33-.4,2.02-.4s1.36,.13,2.02,.4c.66,.27,1.24,.66,1.75,1.17l.37,.37,.37-.37c.53-.51,1.13-.9,1.78-1.17,.66-.27,1.33-.4,2.02-.4s1.36,.13,2.02,.4c.66,.27,1.24,.66,1.75,1.17l5.63,5.63c.51,.51,.9,1.1,1.17,1.77,.27,.67,.4,1.34,.4,2.03s-.13,1.36-.4,2.02c-.27,.66-.66,1.24-1.17,1.75l-10.93,10.9c-.31,.31-.67,.56-1.08,.73-.41,.18-.84,.27-1.28,.27Z"/></svg>