<?xml version="1.0" encoding="UTF-8"?><svg id="Layer_1" xmlns="http://www.w3.org/2000/svg" width="32" height="32" viewBox="0 0 32 32"><defs><style>.cls-1{fill:#8c1313;}</style></defs><path class="cls-1" d="M16.13,24.73l-.13,.13-.15-.13c-6.33-5.75-10.52-9.55-10.52-13.4,0-2.67,2-4.67,4.67-4.67,2.05,0,4.05,1.33,4.76,3.15h2.48c.71-1.81,2.71-3.15,4.76-3.15,2.67,0,4.67,2,4.67,4.67,0,3.85-4.19,7.65-10.53,13.4M22,4c-2.32,0-4.55,1.08-6,2.77-1.45-1.69-3.68-2.77-6-2.77-4.11,0-7.33,3.21-7.33,7.33,0,5.03,4.53,9.15,11.4,15.37l1.93,1.76,1.93-1.76c6.87-6.23,11.4-10.35,11.4-15.37,0-4.12-3.23-7.33-7.33-7.33Z"/></svg>