<svg width="836" height="956" viewBox="0 0 836 956" fill="none" xmlns="http://www.w3.org/2000/svg">
<path d="M714.788 129.125C714.788 129.693 714.532 130.077 714.02 130.277C713.156 130.611 712.196 131.012 711.14 131.479C710.084 131.947 708.98 132.448 707.828 132.982V147.105C708.98 147.573 710.084 148.024 711.14 148.458C712.164 148.858 713.108 149.226 713.972 149.56C714.228 149.66 714.436 149.827 714.596 150.06C714.724 150.294 714.788 150.545 714.788 150.812C714.788 151.112 714.676 151.396 714.452 151.663C714.196 151.897 713.892 152.014 713.54 152.014C713.444 152.014 713.316 151.997 713.156 151.964C712.964 151.897 712.596 151.747 712.052 151.513C710.612 150.945 708.964 150.277 707.108 149.509C705.252 148.708 703.316 147.857 701.3 146.955C699.284 146.054 697.252 145.135 695.204 144.201C693.156 143.266 691.22 142.364 689.396 141.496C688.916 141.262 688.676 140.862 688.676 140.294V140.094C688.676 139.493 688.9 139.092 689.348 138.892C691.204 137.99 693.204 137.039 695.348 136.037C697.492 135.002 699.62 134 701.732 133.032C703.812 132.064 705.764 131.179 707.588 130.377C709.38 129.576 710.868 128.925 712.052 128.424C712.628 128.157 713.012 128.007 713.204 127.973C713.396 127.907 713.524 127.873 713.588 127.873C713.908 127.873 714.196 128.007 714.452 128.274C714.676 128.508 714.788 128.791 714.788 129.125ZM705.428 134.034C703.284 135.002 701.092 136.02 698.852 137.089C696.612 138.157 694.484 139.192 692.468 140.194C694.516 141.129 696.66 142.114 698.9 143.149C701.108 144.15 703.284 145.119 705.428 146.054V134.034Z" fill="white"/>
<path d="M714.788 119.205C714.788 119.539 714.676 119.839 714.452 120.106C714.196 120.34 713.908 120.457 713.588 120.457H690.308C689.956 120.457 689.668 120.34 689.444 120.106C689.22 119.839 689.108 119.539 689.108 119.205V104.931C689.108 104.564 689.22 104.263 689.444 104.029C689.668 103.796 689.956 103.679 690.308 103.679C690.628 103.679 690.916 103.796 691.172 104.029C691.396 104.263 691.508 104.564 691.508 104.931V117.953H700.772V107.485C700.772 107.118 700.884 106.817 701.108 106.584C701.332 106.35 701.62 106.233 701.972 106.233C702.292 106.233 702.58 106.35 702.836 106.584C703.06 106.817 703.172 107.118 703.172 107.485V117.953H713.588C713.908 117.953 714.196 118.07 714.452 118.303C714.676 118.537 714.788 118.837 714.788 119.205Z" fill="white"/>
<path d="M714.788 88.022C714.788 88.3559 714.676 88.6564 714.452 88.9235C714.196 89.1572 713.908 89.2741 713.588 89.2741H691.508V98.6398C691.508 98.9737 691.396 99.2742 691.172 99.5413C690.916 99.775 690.628 99.8919 690.308 99.8919C689.956 99.8919 689.668 99.775 689.444 99.5413C689.22 99.2742 689.108 98.9737 689.108 98.6398V77.2038C689.108 76.8365 689.22 76.536 689.444 76.3023C689.668 76.0686 689.956 75.9517 690.308 75.9517C690.628 75.9517 690.916 76.0686 691.172 76.3023C691.396 76.536 691.508 76.8365 691.508 77.2038V86.7699H713.588C713.908 86.7699 714.196 86.8867 714.452 87.1205C714.676 87.3542 714.788 87.6547 714.788 88.022Z" fill="white"/>
<path d="M714.788 68.0936C714.788 68.4275 714.676 68.728 714.452 68.9951C714.196 69.2289 713.908 69.3457 713.588 69.3457H690.308C689.988 69.3457 689.716 69.2456 689.492 69.0452C689.236 68.8115 689.108 68.5444 689.108 68.2439V54.2204C689.108 53.8531 689.22 53.5526 689.444 53.3188C689.668 53.0851 689.956 52.9683 690.308 52.9683C690.628 52.9683 690.916 53.0851 691.172 53.3188C691.396 53.5526 691.508 53.8531 691.508 54.2204V66.8415H699.86V56.374C699.86 56.0067 699.972 55.7062 700.196 55.4725C700.42 55.2387 700.708 55.1219 701.06 55.1219C701.38 55.1219 701.668 55.2387 701.924 55.4725C702.148 55.7062 702.26 56.0067 702.26 56.374V66.8415H712.388V54.1202C712.388 53.7529 712.5 53.4524 712.724 53.2187C712.948 52.985 713.236 52.8681 713.588 52.8681C713.908 52.8681 714.196 52.985 714.452 53.2187C714.676 53.4524 714.788 53.7529 714.788 54.1202V68.0936Z" fill="white"/>
<path d="M714.308 25.507C712.836 26.6422 711.188 27.9611 709.364 29.4636C707.54 30.9327 705.684 32.452 703.796 34.0213C701.876 35.5906 700.02 37.1098 698.228 38.5789C696.436 40.0146 694.852 41.3001 693.476 42.4354H713.588C713.908 42.4354 714.196 42.5522 714.452 42.786C714.676 43.0197 714.788 43.3202 714.788 43.6875C714.788 44.0214 714.676 44.3219 714.452 44.589C714.196 44.8227 713.908 44.9396 713.588 44.9396H690.308C689.956 44.9396 689.668 44.8227 689.444 44.589C689.22 44.3219 689.108 44.038 689.108 43.7375C689.108 43.0698 689.268 42.619 689.588 42.3853C690.644 41.5505 692.004 40.4654 693.668 39.1298C695.3 37.7942 697.092 36.3418 699.044 34.7725C700.964 33.1698 702.916 31.5671 704.9 29.9644C706.852 28.3284 708.692 26.8259 710.42 25.4569H690.308C689.956 25.4569 689.668 25.34 689.444 25.1063C689.22 24.8392 689.108 24.5387 689.108 24.2048C689.108 23.8375 689.22 23.537 689.444 23.3033C689.668 23.0695 689.956 22.9527 690.308 22.9527H713.588C713.908 22.9527 714.196 23.0695 714.452 23.3033C714.676 23.537 714.788 23.8208 714.788 24.1547C714.788 24.8225 714.628 25.2732 714.308 25.507Z" fill="white"/>
<path d="M0 940L0 0H836L836 796.342L0 940Z" fill="#6E0B20"/>
<path d="M0 956L0 641.604L836 332.953V956H0Z" fill="#BA0930"/>
<path d="M417.285 524.777C440.008 524.777 458.428 507.111 458.428 485.318C458.428 463.525 440.008 445.858 417.285 445.858C394.563 445.858 376.143 463.525 376.143 485.318C376.143 507.111 394.563 524.777 417.285 524.777Z" fill="#DD9023"/>
<path d="M368.662 440.352C366.699 434.109 364.887 426.375 364.107 417.419C362.786 402.278 364.924 389.58 367.208 380.768C353.195 368.016 331.572 367.197 316.733 378.727C301.614 390.471 297.766 411.757 307.972 428.004C315.917 426.5 330.934 424.804 348.076 430.278C356.846 433.075 363.722 436.969 368.662 440.352Z" fill="#396E27"/>
<path d="M368.662 535.789C365.713 541.663 362.672 549.031 360.441 557.776C356.673 572.552 356.71 585.458 357.523 594.535C341.652 604.972 320.244 602.406 307.519 588.684C294.556 574.702 294.231 553.033 306.924 538.544C314.496 541.272 329 545.293 346.76 542.551C355.845 541.147 363.248 538.369 368.662 535.794V535.789Z" fill="#396E27"/>
<path d="M417.864 423.001C420.587 417.164 424.427 410.325 429.873 403.228C439.077 391.226 449.256 383.197 456.924 378.121C454.909 359.941 439.095 345.812 420.095 345.034C400.735 344.242 383.473 357.543 380.248 375.916C387.276 379.775 399.787 387.922 409.074 402.681C413.825 410.233 416.406 417.409 417.868 422.997L417.864 423.001Z" fill="#EFEDB7"/>
<path d="M414.186 552.307C411.831 558.362 408.428 565.493 403.442 572.978C395.007 585.633 385.349 594.337 378.013 599.9C381.163 618.154 397.836 631.526 416.849 631.22C436.226 630.906 452.618 616.479 454.688 597.725C447.43 594.231 434.433 586.714 424.24 572.332C419.025 564.97 415.998 557.87 414.191 552.307H414.186Z" fill="#EFEDB7"/>
<path d="M344.346 485.286C337.933 487.1 330.329 489.848 322.244 494.087C308.58 501.256 298.902 509.885 292.626 516.518C274.029 512.164 261.45 495.189 263.154 476.967C264.89 458.399 280.964 443.721 300.459 443.105C303.537 450.323 310.339 463.346 324.429 474.179C331.639 479.723 338.744 483.144 344.351 485.286H344.346Z" fill="#EFEDB7"/>
<path d="M467.506 444.728C469.661 438.554 471.718 430.885 472.802 421.96C474.636 406.872 472.977 394.111 471.036 385.227C485.293 372.952 506.627 372.856 520.842 384.874C535.326 397.117 538.369 418.519 527.741 434.415C519.965 432.647 505.228 430.449 488.145 435.347C479.405 437.85 472.493 441.511 467.506 444.728Z" fill="#396E27"/>
<path d="M463.104 535.789C466.014 541.663 469.015 549.031 471.217 557.776C474.935 572.552 474.899 585.458 474.096 594.535C489.758 604.972 510.885 602.406 523.443 588.684C536.235 574.702 536.555 553.033 524.029 538.544C516.557 541.272 502.244 545.293 484.718 542.551C475.752 541.147 468.446 538.369 463.104 535.794V535.789Z" fill="#396E27"/>
<path d="M493.03 485.286C499.369 487.1 506.886 489.848 514.878 494.087C528.385 501.256 537.952 509.885 544.156 516.518C562.539 512.164 574.973 495.189 573.289 476.966C571.573 458.399 555.684 443.721 536.413 443.105C533.37 450.323 526.646 463.346 512.718 474.179C505.591 479.723 498.568 483.144 493.026 485.286H493.03Z" fill="#EFEDB7"/>
</svg>
