<svg width="1919" height="836" viewBox="0 0 1919 836" fill="none" xmlns="http://www.w3.org/2000/svg">
<path d="M1371.88 714.788C1371.31 714.788 1370.92 714.532 1370.72 714.02C1370.39 713.156 1369.99 712.196 1369.52 711.14C1369.05 710.084 1368.55 708.98 1368.02 707.828H1353.89C1353.43 708.98 1352.98 710.084 1352.54 711.14C1352.14 712.164 1351.77 713.108 1351.44 713.972C1351.34 714.228 1351.17 714.436 1350.94 714.596C1350.71 714.724 1350.46 714.788 1350.19 714.788C1349.89 714.788 1349.6 714.676 1349.34 714.452C1349.1 714.196 1348.99 713.892 1348.99 713.54C1348.99 713.444 1349 713.316 1349.04 713.156C1349.1 712.964 1349.25 712.596 1349.49 712.052C1350.06 710.612 1350.72 708.964 1351.49 707.108C1352.29 705.252 1353.14 703.316 1354.05 701.3C1354.95 699.284 1355.86 697.252 1356.8 695.204C1357.73 693.156 1358.64 691.22 1359.5 689.396C1359.74 688.916 1360.14 688.676 1360.71 688.676H1360.91C1361.51 688.676 1361.91 688.9 1362.11 689.348C1363.01 691.204 1363.96 693.204 1364.96 695.348C1366 697.492 1367 699.62 1367.97 701.732C1368.94 703.812 1369.82 705.764 1370.62 707.588C1371.42 709.38 1372.08 710.868 1372.58 712.052C1372.84 712.628 1372.99 713.012 1373.03 713.204C1373.09 713.396 1373.13 713.524 1373.13 713.588C1373.13 713.908 1372.99 714.196 1372.73 714.452C1372.49 714.676 1372.21 714.788 1371.88 714.788ZM1366.97 705.428C1366 703.284 1364.98 701.092 1363.91 698.852C1362.84 696.612 1361.81 694.484 1360.81 692.468C1359.87 694.516 1358.89 696.66 1357.85 698.9C1356.85 701.108 1355.88 703.284 1354.95 705.428H1366.97Z" fill="white"/>
<path d="M1381.8 714.788C1381.46 714.788 1381.16 714.676 1380.89 714.452C1380.66 714.196 1380.54 713.908 1380.54 713.588V690.308C1380.54 689.956 1380.66 689.668 1380.89 689.444C1381.16 689.22 1381.46 689.108 1381.8 689.108H1396.07C1396.44 689.108 1396.74 689.22 1396.97 689.444C1397.2 689.668 1397.32 689.956 1397.32 690.308C1397.32 690.628 1397.2 690.916 1396.97 691.172C1396.74 691.396 1396.44 691.508 1396.07 691.508H1383.05V700.772H1393.52C1393.88 700.772 1394.18 700.884 1394.42 701.108C1394.65 701.332 1394.77 701.62 1394.77 701.972C1394.77 702.292 1394.65 702.58 1394.42 702.836C1394.18 703.06 1393.88 703.172 1393.52 703.172H1383.05V713.588C1383.05 713.908 1382.93 714.196 1382.7 714.452C1382.46 714.676 1382.16 714.788 1381.8 714.788Z" fill="white"/>
<path d="M1412.98 714.788C1412.64 714.788 1412.34 714.676 1412.08 714.452C1411.84 714.196 1411.73 713.908 1411.73 713.588V691.508H1402.36C1402.03 691.508 1401.73 691.396 1401.46 691.172C1401.23 690.916 1401.11 690.628 1401.11 690.308C1401.11 689.956 1401.23 689.668 1401.46 689.444C1401.73 689.22 1402.03 689.108 1402.36 689.108H1423.8C1424.16 689.108 1424.46 689.22 1424.7 689.444C1424.93 689.668 1425.05 689.956 1425.05 690.308C1425.05 690.628 1424.93 690.916 1424.7 691.172C1424.46 691.396 1424.16 691.508 1423.8 691.508H1414.23V713.588C1414.23 713.908 1414.11 714.196 1413.88 714.452C1413.65 714.676 1413.35 714.788 1412.98 714.788Z" fill="white"/>
<path d="M1432.91 714.788C1432.57 714.788 1432.27 714.676 1432.01 714.452C1431.77 714.196 1431.65 713.908 1431.65 713.588V690.308C1431.65 689.988 1431.75 689.716 1431.96 689.492C1432.19 689.236 1432.46 689.108 1432.76 689.108H1446.78C1447.15 689.108 1447.45 689.22 1447.68 689.444C1447.92 689.668 1448.03 689.956 1448.03 690.308C1448.03 690.628 1447.92 690.916 1447.68 691.172C1447.45 691.396 1447.15 691.508 1446.78 691.508H1434.16V699.86H1444.63C1444.99 699.86 1445.29 699.972 1445.53 700.196C1445.76 700.42 1445.88 700.708 1445.88 701.06C1445.88 701.38 1445.76 701.668 1445.53 701.924C1445.29 702.148 1444.99 702.26 1444.63 702.26H1434.16V712.388H1446.88C1447.25 712.388 1447.55 712.5 1447.78 712.724C1448.02 712.948 1448.13 713.236 1448.13 713.588C1448.13 713.908 1448.02 714.196 1447.78 714.452C1447.55 714.676 1447.25 714.788 1446.88 714.788H1432.91Z" fill="white"/>
<path d="M1475.49 714.308C1474.36 712.836 1473.04 711.188 1471.54 709.364C1470.07 707.54 1468.55 705.684 1466.98 703.796C1465.41 701.876 1463.89 700.02 1462.42 698.228C1460.99 696.436 1459.7 694.852 1458.57 693.476V713.588C1458.57 713.908 1458.45 714.196 1458.21 714.452C1457.98 714.676 1457.68 714.788 1457.31 714.788C1456.98 714.788 1456.68 714.676 1456.41 714.452C1456.18 714.196 1456.06 713.908 1456.06 713.588V690.308C1456.06 689.956 1456.18 689.668 1456.41 689.444C1456.68 689.22 1456.96 689.108 1457.26 689.108C1457.93 689.108 1458.38 689.268 1458.62 689.588C1459.45 690.644 1460.53 692.004 1461.87 693.668C1463.21 695.3 1464.66 697.092 1466.23 699.044C1467.83 700.964 1469.43 702.916 1471.04 704.9C1472.67 706.852 1474.17 708.692 1475.54 710.42V690.308C1475.54 689.956 1475.66 689.668 1475.89 689.444C1476.16 689.22 1476.46 689.108 1476.8 689.108C1477.16 689.108 1477.46 689.22 1477.7 689.444C1477.93 689.668 1478.05 689.956 1478.05 690.308V713.588C1478.05 713.908 1477.93 714.196 1477.7 714.452C1477.46 714.676 1477.18 714.788 1476.85 714.788C1476.18 714.788 1475.73 714.628 1475.49 714.308Z" fill="white"/>
<path d="M225.079 713.512C224.745 713.512 224.445 713.4 224.178 713.176C223.944 712.92 223.827 712.632 223.827 712.312V689.032C223.827 688.68 223.944 688.392 224.178 688.168C224.445 687.944 224.745 687.832 225.079 687.832H239.353C239.72 687.832 240.021 687.944 240.255 688.168C240.488 688.392 240.605 688.68 240.605 689.032C240.605 689.352 240.488 689.64 240.255 689.896C240.021 690.12 239.72 690.232 239.353 690.232H226.331V699.496H236.799C237.166 699.496 237.467 699.608 237.7 699.832C237.934 700.056 238.051 700.344 238.051 700.696C238.051 701.016 237.934 701.304 237.7 701.56C237.467 701.784 237.166 701.896 236.799 701.896H226.331V712.312C226.331 712.632 226.214 712.92 225.981 713.176C225.747 713.4 225.447 713.512 225.079 713.512Z" fill="white"/>
<path d="M265.928 713.512C265.561 713.512 265.244 713.368 264.977 713.08L256.813 703.96H250.102V712.312C250.102 712.632 249.985 712.92 249.751 713.176C249.517 713.4 249.217 713.512 248.85 713.512C248.516 713.512 248.215 713.4 247.948 713.176C247.714 712.92 247.597 712.632 247.597 712.312V689.032C247.597 688.68 247.714 688.392 247.948 688.168C248.215 687.944 248.516 687.832 248.85 687.832H256.212C258.182 687.832 259.868 688.184 261.27 688.888C262.706 689.592 263.808 690.552 264.576 691.768C265.377 692.952 265.778 694.328 265.778 695.896C265.778 697.624 265.277 699.192 264.275 700.6C263.307 702.008 261.788 702.984 259.718 703.528L266.88 711.544C267.08 711.736 267.18 711.992 267.18 712.312C267.18 712.6 267.063 712.872 266.83 713.128C266.596 713.384 266.296 713.512 265.928 713.512ZM250.102 690.232V701.56H256.212C258.516 701.56 260.269 701.016 261.471 699.928C262.673 698.808 263.274 697.464 263.274 695.896C263.274 694.2 262.606 692.84 261.27 691.816C259.968 690.76 258.282 690.232 256.212 690.232H250.102Z" fill="white"/>
<path d="M286.157 687.4C288.528 687.4 290.681 687.96 292.618 689.08C294.588 690.2 296.14 691.768 297.276 693.784C298.444 695.768 299.029 698.072 299.029 700.696C299.029 703.192 298.511 705.448 297.476 707.464C296.474 709.448 295.005 711.032 293.069 712.216C291.165 713.368 288.862 713.944 286.157 713.944C283.619 713.944 281.366 713.368 279.396 712.216C277.426 711.032 275.873 709.448 274.738 707.464C273.636 705.48 273.085 703.272 273.085 700.84C273.085 698.152 273.636 695.8 274.738 693.784C275.84 691.768 277.359 690.2 279.296 689.08C281.266 687.96 283.553 687.4 286.157 687.4ZM286.157 689.8C284.054 689.8 282.2 690.28 280.598 691.24C279.028 692.168 277.793 693.464 276.892 695.128C276.023 696.76 275.589 698.664 275.589 700.84C275.589 702.792 276.023 704.584 276.892 706.216C277.793 707.848 279.045 709.144 280.648 710.104C282.251 711.064 284.087 711.544 286.157 711.544C288.361 711.544 290.231 711.064 291.766 710.104C293.336 709.144 294.521 707.848 295.322 706.216C296.124 704.552 296.524 702.712 296.524 700.696C296.524 698.584 296.057 696.712 295.122 695.08C294.221 693.448 292.985 692.168 291.416 691.24C289.847 690.28 288.094 689.8 286.157 689.8Z" fill="white"/>
<path d="M326.056 713.512C325.689 713.512 325.372 713.368 325.105 713.08C324.47 712.376 323.686 711.512 322.751 710.488C321.849 709.432 320.881 708.312 319.846 707.128C318.844 705.944 317.843 704.792 316.841 703.672C315.873 702.52 315.005 701.496 314.237 700.6C313.235 701.496 312.317 702.312 311.482 703.048C310.647 703.752 309.979 704.328 309.479 704.776V712.312C309.479 712.632 309.362 712.92 309.128 713.176C308.894 713.4 308.594 713.512 308.226 713.512C307.893 713.512 307.592 713.4 307.325 713.176C307.091 712.92 306.974 712.632 306.974 712.312V689.032C306.974 688.68 307.091 688.392 307.325 688.168C307.592 687.944 307.893 687.832 308.226 687.832C308.594 687.832 308.894 687.944 309.128 688.168C309.362 688.392 309.479 688.68 309.479 689.032V701.56C310.414 700.728 311.499 699.768 312.734 698.68C314.003 697.56 315.322 696.392 316.691 695.176C318.06 693.928 319.395 692.712 320.697 691.528C322 690.312 323.152 689.208 324.153 688.216C324.42 687.96 324.721 687.832 325.055 687.832C325.389 687.832 325.672 687.96 325.906 688.216C326.173 688.44 326.307 688.712 326.307 689.032C326.307 689.288 326.19 689.56 325.956 689.848C324.654 691.16 323.101 692.648 321.298 694.312C319.529 695.944 317.793 697.512 316.09 699.016C316.858 699.88 317.726 700.888 318.694 702.04C319.696 703.192 320.714 704.36 321.749 705.544C322.784 706.728 323.753 707.848 324.654 708.904C325.589 709.96 326.374 710.84 327.008 711.544C327.208 711.736 327.309 711.992 327.309 712.312C327.309 712.6 327.192 712.872 326.958 713.128C326.724 713.384 326.424 713.512 326.056 713.512Z" fill="white"/>
<path d="M345.827 687.4C348.198 687.4 350.352 687.96 352.288 689.08C354.258 690.2 355.811 691.768 356.946 693.784C358.115 695.768 358.699 698.072 358.699 700.696C358.699 703.192 358.181 705.448 357.146 707.464C356.145 709.448 354.676 711.032 352.739 712.216C350.836 713.368 348.532 713.944 345.827 713.944C343.29 713.944 341.036 713.368 339.066 712.216C337.096 711.032 335.544 709.448 334.408 707.464C333.306 705.48 332.756 703.272 332.756 700.84C332.756 698.152 333.306 695.8 334.408 693.784C335.51 691.768 337.029 690.2 338.966 689.08C340.936 687.96 343.223 687.4 345.827 687.4ZM345.827 689.8C343.724 689.8 341.871 690.28 340.268 691.24C338.699 692.168 337.463 693.464 336.562 695.128C335.694 696.76 335.26 698.664 335.26 700.84C335.26 702.792 335.694 704.584 336.562 706.216C337.463 707.848 338.716 709.144 340.318 710.104C341.921 711.064 343.757 711.544 345.827 711.544C348.031 711.544 349.901 711.064 351.437 710.104C353.006 709.144 354.191 707.848 354.993 706.216C355.794 704.552 356.195 702.712 356.195 700.696C356.195 698.584 355.727 696.712 354.792 695.08C353.891 693.448 352.656 692.168 351.086 691.24C349.517 690.28 347.764 689.8 345.827 689.8Z" fill="white"/>
<path d="M380.268 691C379.466 690.68 378.581 690.424 377.613 690.232C376.678 690.04 375.443 689.944 373.907 689.944C372.204 689.944 370.852 690.36 369.85 691.192C368.848 691.992 368.348 692.904 368.348 693.928C368.348 694.952 368.815 695.88 369.75 696.712C370.685 697.544 372.505 698.264 375.209 698.872C377.613 699.384 379.466 700.04 380.768 700.84C382.104 701.64 383.039 702.552 383.573 703.576C384.107 704.568 384.375 705.672 384.375 706.888C384.375 708.072 384.057 709.208 383.423 710.296C382.822 711.352 381.82 712.232 380.418 712.936C379.049 713.608 377.213 713.944 374.909 713.944C371.636 713.944 368.615 713.208 365.843 711.736C365.409 711.48 365.192 711.128 365.192 710.68C365.192 710.392 365.309 710.12 365.543 709.864C365.777 709.608 366.077 709.48 366.444 709.48C366.645 709.48 366.845 709.528 367.045 709.624C369.416 710.904 372.037 711.544 374.909 711.544C377.179 711.544 378.899 711.096 380.067 710.2C381.269 709.272 381.87 708.168 381.87 706.888C381.87 705.544 381.303 704.424 380.167 703.528C379.066 702.632 377.246 701.88 374.708 701.272C372.338 700.696 370.501 700.04 369.199 699.304C367.93 698.568 367.045 697.736 366.545 696.808C366.077 695.88 365.843 694.856 365.843 693.736C365.843 692.712 366.144 691.736 366.745 690.808C367.379 689.848 368.298 689.064 369.5 688.456C370.702 687.848 372.171 687.544 373.907 687.544C375.743 687.544 377.213 687.688 378.314 687.976C379.45 688.232 380.635 688.6 381.87 689.08C382.405 689.272 382.672 689.64 382.672 690.184C382.672 690.504 382.538 690.792 382.271 691.048C382.037 691.272 381.753 691.384 381.42 691.384C381.353 691.384 381.253 691.368 381.119 691.336C380.986 691.272 380.702 691.16 380.268 691Z" fill="white"/>
<path d="M400.645 713.512C400.311 713.512 400.01 713.4 399.743 713.176C399.51 712.92 399.393 712.632 399.393 712.312V690.232H390.027C389.693 690.232 389.393 690.12 389.125 689.896C388.892 689.64 388.775 689.352 388.775 689.032C388.775 688.68 388.892 688.392 389.125 688.168C389.393 687.944 389.693 687.832 390.027 687.832H411.463C411.83 687.832 412.131 687.944 412.364 688.168C412.598 688.392 412.715 688.68 412.715 689.032C412.715 689.352 412.598 689.64 412.364 689.896C412.131 690.12 411.83 690.232 411.463 690.232H401.897V712.312C401.897 712.632 401.78 712.92 401.546 713.176C401.313 713.4 401.012 713.512 400.645 713.512Z" fill="white"/>
<path d="M560.665 0H1920V836H768.41L560.665 0Z" fill="#6E0B20"/>
<path d="M0 0H627.707L1243.94 836H0V0Z" fill="#BA0930"/>
<path d="M971.285 498.777C994.008 498.777 1012.43 481.111 1012.43 459.318C1012.43 437.525 994.008 419.858 971.285 419.858C948.563 419.858 930.143 437.525 930.143 459.318C930.143 481.111 948.563 498.777 971.285 498.777Z" fill="#DD9023"/>
<path d="M922.662 414.352C920.699 408.109 918.887 400.375 918.107 391.419C916.786 376.278 918.924 363.58 921.208 354.768C907.195 342.016 885.572 341.197 870.733 352.727C855.614 364.471 851.766 385.757 861.972 402.004C869.917 400.5 884.934 398.804 902.076 404.278C910.846 407.075 917.722 410.969 922.662 414.352Z" fill="#396E27"/>
<path d="M922.662 509.789C919.713 515.663 916.672 523.031 914.441 531.776C910.673 546.552 910.71 559.458 911.524 568.535C895.652 578.972 874.244 576.406 861.519 562.684C848.556 548.702 848.231 527.033 860.924 512.544C868.496 515.272 883 519.293 900.76 516.551C909.845 515.147 917.248 512.369 922.662 509.794V509.789Z" fill="#396E27"/>
<path d="M971.864 397.001C974.587 391.164 978.427 384.325 983.873 377.228C993.077 365.226 1003.26 357.197 1010.92 352.121C1008.91 333.941 993.095 319.812 974.094 319.034C954.735 318.242 937.473 331.543 934.248 349.916C941.276 353.775 953.787 361.922 963.074 376.681C967.825 384.233 970.406 391.409 971.868 396.997L971.864 397.001Z" fill="#EFEDB7"/>
<path d="M968.186 526.307C965.832 532.362 962.428 539.493 957.442 546.978C949.007 559.633 939.349 568.337 932.013 573.9C935.163 592.154 951.836 605.526 970.849 605.22C990.226 604.906 1006.62 590.479 1008.69 571.725C1001.43 568.231 988.433 560.714 978.24 546.332C973.025 538.97 969.998 531.87 968.191 526.307H968.186Z" fill="#EFEDB7"/>
<path d="M898.346 459.286C891.933 461.1 884.329 463.848 876.244 468.087C862.58 475.256 852.902 483.885 846.626 490.518C828.029 486.164 815.45 469.189 817.154 450.967C818.89 432.399 834.964 417.721 854.459 417.105C857.537 424.323 864.339 437.346 878.429 448.179C885.639 453.723 892.744 457.144 898.351 459.286H898.346Z" fill="#EFEDB7"/>
<path d="M1021.51 418.728C1023.66 412.554 1025.72 404.885 1026.8 395.96C1028.64 380.872 1026.98 368.111 1025.04 359.227C1039.29 346.952 1060.63 346.856 1074.84 358.874C1089.33 371.117 1092.37 392.519 1081.74 408.415C1073.97 406.647 1059.23 404.449 1042.15 409.347C1033.41 411.85 1026.49 415.511 1021.51 418.728Z" fill="#396E27"/>
<path d="M1017.1 509.789C1020.01 515.663 1023.02 523.031 1025.22 531.776C1028.94 546.552 1028.9 559.458 1028.1 568.535C1043.76 578.972 1064.88 576.406 1077.44 562.684C1090.24 548.702 1090.56 527.033 1078.03 512.544C1070.56 515.272 1056.24 519.293 1038.72 516.551C1029.75 515.147 1022.45 512.369 1017.1 509.794V509.789Z" fill="#396E27"/>
<path d="M1047.03 459.286C1053.37 461.1 1060.89 463.848 1068.88 468.087C1082.38 475.256 1091.95 483.885 1098.16 490.518C1116.54 486.164 1128.97 469.189 1127.29 450.966C1125.57 432.399 1109.68 417.721 1090.41 417.105C1087.37 424.323 1080.65 437.346 1066.72 448.179C1059.59 453.723 1052.57 457.144 1047.03 459.286H1047.03Z" fill="#EFEDB7"/>
</svg>
